<svg width="800" height="800" viewBox="0 0 800 800" fill="none" xmlns="http://www.w3.org/2000/svg">
<path d="M100 232.999C293.815 162.655 506.187 162.655 700 232.999" stroke="#F43F5E" stroke-width="100" stroke-linecap="round" stroke-linejoin="round"/>
<path d="M266.992 190.666C266.992 155.303 281.04 121.392 306.045 96.3867C331.049 71.3821 364.963 57.3324 400.327 57.3324C435.686 57.3324 469.603 71.3821 494.606 96.3867C519.61 121.392 533.66 155.303 533.66 190.666" stroke="#F43F5E" stroke-width="100" stroke-linecap="round" stroke-linejoin="round"/>
<path d="M400 433.333V600" stroke="#F43F5E" stroke-width="100" stroke-linecap="round" stroke-linejoin="round"/>
<path d="M633.333 333L611 599.667C607.416 635.7 590.75 669.17 564.153 693.743C537.553 718.313 502.87 732.28 466.667 733H333.333C297.129 732.28 262.445 718.313 235.847 693.743C209.248 669.17 192.582 635.7 189 599.667L166.667 333" stroke="#F43F5E" stroke-width="100" stroke-linecap="round" stroke-linejoin="round"/>
</svg>
