<svg width="64" height="64" viewBox="0 0 64 64" fill="none" xmlns="http://www.w3.org/2000/svg">
<rect width="64" height="64" rx="5" fill="#F8FAFC"/>
<g clip-path="url(#clip0_220_39)">
<path d="M54.6787 37.3296C54.3428 37.1864 53.955 37.2578 53.6962 37.5142C53.4364 37.7695 53.3575 38.1563 53.4954 38.4931C53.5672 38.6678 53.5904 38.8139 53.5563 38.8757C53.5062 38.9642 53.2518 39.1569 52.6534 39.2571C52.5926 39.2642 52.4689 39.2679 52.2871 39.2679C51.9108 39.2679 50.9785 39.2464 49.4737 39.0771C50.3721 37.0072 50.8423 34.7581 50.8423 32.499C50.8423 23.3906 43.4321 15.9803 34.3236 15.9803C26.7854 15.9803 20.2718 21.0652 18.3702 28.2452C16.2241 26.8461 14.5536 25.4318 13.5011 24.116C12.9888 23.4747 13.3533 22.9597 13.5253 22.7769C13.7627 22.5396 13.8469 22.1903 13.7457 21.8715C13.6436 21.5517 13.3722 21.3161 13.0417 21.2605C11.9857 21.0823 11.0139 20.9918 10.1521 20.9918C6.09542 20.9918 5.30186 22.9534 5.15855 23.5061C3.58482 27.7203 14.1506 33.511 18.0952 35.4996C19.5319 43.362 26.2837 49.0193 34.3218 49.0193C38.1724 49.0193 41.8986 47.665 44.866 45.1956C47.1984 45.749 51.1431 46.558 54.2835 46.558C56.9652 46.558 58.6438 45.9803 59.4141 44.7925C59.9954 43.896 60.1476 42.9106 59.8548 41.9431C59.0506 39.2797 55.1239 37.5223 54.6787 37.3296ZM30.234 26.5167C28.6701 26.5167 27.3973 25.2439 27.3973 23.6799C27.3973 22.1159 28.67 20.8441 30.234 20.8441C31.798 20.8441 33.0707 22.116 33.0707 23.6808C33.0707 25.2457 31.7979 26.5167 30.234 26.5167Z" fill="#65A30D"/>
</g>
<defs>
<clipPath id="clip0_220_39">
<rect width="55" height="55" fill="white" transform="translate(5 5)"/>
</clipPath>
</defs>
</svg>
